<?xml version="1.0" encoding="UTF-8"?>
<!DOCTYPE svg PUBLIC "-//W3C//DTD SVG 1.1//EN" "http://www.w3.org/Graphics/SVG/1.1/DTD/svg11.dtd">
<svg version="1.1" xmlns="http://www.w3.org/2000/svg" xmlns:xlink="http://www.w3.org/1999/xlink" x="0" y="0" width="473.71" height="296.083" viewBox="0, 0, 473.71, 296.083">
  <g id="layer1">
    <g id="g926">
      <g id="path908">
        <path d="M374.04,14.133 C368.792,13.432 363.524,12.673 361.556,21.267 C354.192,70.836 337.906,105.356 322.916,125.298 C260.138,138.908 205.93,246.829 307.46,278.076 C325.413,298.285 349.682,300.325 369.879,284.02 C400.343,294.43 421.735,285.999 437.648,266.186 C495.174,256.952 471.58,180.309 438.039,155.999 C415.737,139.834 387.868,128.253 378.862,110.719 C363.621,74.55 389.891,52.179 394.252,23.644 C392.326,17.765 384.047,14.034 374.04,14.133 z" fill="#F0EDE1"/>
        <path d="M374.04,14.133 C368.792,13.432 363.524,12.673 361.556,21.267 C354.192,70.836 337.906,105.356 322.916,125.298 C260.138,138.908 205.93,246.829 307.46,278.076 C325.413,298.285 349.682,300.325 369.879,284.02 C400.343,294.43 421.735,285.999 437.648,266.186 C495.174,256.952 471.58,180.309 438.039,155.999 C415.737,139.834 387.868,128.253 378.862,110.719 C363.621,74.55 389.891,52.179 394.252,23.644 C392.326,17.765 384.047,14.034 374.04,14.133 z" fill-opacity="0" stroke="#000000" stroke-width="2.358" stroke-linecap="round" stroke-linejoin="round"/>
      </g>
      <path d="M340.719,122.952 C325.419,172.437 278.099,209.553 307.46,278.076" fill-opacity="0" stroke="#000000" stroke-width="2.358" stroke-linecap="round" stroke-linejoin="round" id="path910"/>
      <path d="M369.879,284.02 C392.127,256.255 376.86,226.745 377.71,197.984" fill-opacity="0" stroke="#000000" stroke-width="2.358" stroke-linecap="round" stroke-linejoin="round" id="path912"/>
      <path d="M383.175,125.264 C415.046,168.414 460.976,207.644 437.648,266.186" fill-opacity="0" stroke="#000000" stroke-width="2.358" stroke-linecap="round" stroke-linejoin="round" id="path914"/>
      <path d="M362.157,89.113 C363.464,120.189 364.068,151.733 373.507,177.387" fill-opacity="0" stroke="#000000" stroke-width="2.358" stroke-linecap="round" stroke-linejoin="round" id="path916"/>
      <g id="path918">
        <path d="M367.832,35.939 L375.819,5.464 C377.708,-2.563 391.554,1.638 389.27,10.298 C382.652,34.044 371.331,58.876 371.195,81.127" fill="#F0EDE1"/>
        <path d="M367.832,35.939 L375.819,5.464 C377.708,-2.563 391.554,1.638 389.27,10.298 C382.652,34.044 371.331,58.876 371.195,81.127" fill-opacity="0" stroke="#000000" stroke-width="2.358" stroke-linecap="round" stroke-linejoin="round"/>
      </g>
    </g>
    <g id="g955">
      <g id="path928">
        <path d="M196.776,272.477 C107.015,296.547 87.321,248.523 51.655,255.404 C34.288,263.334 17.558,261.052 1.178,253.177 C48.262,252.454 48.924,221.888 71.326,205.299 C148.906,146.826 226.481,205.452 210.137,248.723 C211.458,258.528 207.003,266.446 196.776,272.477 z" fill="#F0EDE1"/>
        <path d="M196.776,272.477 C107.015,296.547 87.321,248.523 51.655,255.404 C34.288,263.334 17.558,261.052 1.178,253.177 C48.262,252.454 48.924,221.888 71.326,205.299 C148.906,146.826 226.481,205.452 210.137,248.723 C211.458,258.528 207.003,266.446 196.776,272.477 z" fill-opacity="0" stroke="#000000" stroke-width="2.358" stroke-linecap="round" stroke-linejoin="round"/>
      </g>
      <path d="M184.044,262.678 C182.09,255.007 172.611,251.718 162.261,255.329 C135.317,261.988 110.228,259.757 83.284,246.91 C73.366,242.836 65.24,243.751 53.975,250.394" fill-opacity="0" stroke="#000000" stroke-width="2.358" stroke-linecap="round" stroke-linejoin="round" id="path930"/>
      <path d="M194.279,241.157 C216.612,209.924 176.655,195.973 156.487,189.981" fill-opacity="0" stroke="#000000" stroke-width="2.358" stroke-linecap="round" stroke-linejoin="round" id="path932"/>
      <g id="path934">
        <path d="M196.776,272.477 C184.309,268.83 187.23,257.888 188.185,255.141 C190.886,250.164 194.355,243.727 202.415,242.995 C207.268,242.274 208.336,245.922 210.137,248.723 C209.267,257.773 206.942,266.363 196.776,272.477 z" fill="#786721"/>
        <path d="M196.776,272.477 C184.309,268.83 187.23,257.888 188.185,255.141 C190.886,250.164 194.355,243.727 202.415,242.995 C207.268,242.274 208.336,245.922 210.137,248.723 C209.267,257.773 206.942,266.363 196.776,272.477 z" fill-opacity="0" stroke="#000000" stroke-width="2.358" stroke-linecap="round" stroke-linejoin="round"/>
      </g>
      <path d="M65.157,234.071 C72.153,227.339 76.371,226.164 80.641,224.886" fill-opacity="0" stroke="#000000" stroke-width="2.358" stroke-linecap="round" stroke-linejoin="round" id="path936"/>
    </g>
  </g>
</svg>
