<svg id="Capa_1" enable-background="new 0 0 496.985 496.985" height="512" viewBox="0 0 496.985 496.985" width="512" xmlns="http://www.w3.org/2000/svg"><g><path d="m473.943 47.514c-127.255-20.133-271.653-32.904-369.866 39.239-6.526 4.794-12.635 9.737-18.369 14.819-69.456 69.456-75.708 175.692-75.708 288.066 0 11.783 7.718 22.201 18.942 25.788 121.837 38.928 239.675 61.83 339.661-11.616 5.978-4.391 12.699-13.045 18.185-17.933 69.164-77.379 93.678-197.678 109.899-307.399 2.192-14.822-7.946-28.622-22.744-30.964z" fill="#c2e4a1"/><path d="m38.942 405.426c-11.224-3.587-18.942-14.005-18.942-25.788 0-112.374 2.985-207.071 65.708-278.066-82.125 72.774-85.708 174.784-85.708 298.066 0 11.783 7.718 22.201 18.942 25.788 121.837 38.928 230.675 67.83 330.661-5.616 13.665-10.038 26.006-21.427 37.185-33.933-5.486 4.888-11.207 9.542-17.185 13.933-99.986 73.446-208.824 44.544-330.661 5.616z" fill="#98ca91"/><path d="m324.361 66.692c-19.388 0-37.32 6.225-51.915 16.78-10.554 14.595-26.78 42.526-26.78 61.914 0 48.984 39.71 88.694 88.694 88.694 19.388 0 47.319-16.225 61.914-26.78 10.554-14.595 16.78-32.526 16.78-51.914.001-48.984-39.709-88.694-88.693-88.694z" fill="#ebb3b8"/><path d="m255.666 135.386c0-19.388 6.225-37.319 16.78-51.914-22.28 16.112-36.78 42.318-36.78 71.914 0 48.984 39.71 88.694 88.694 88.694 29.596 0 55.802-14.5 71.914-36.78-14.595 10.554-32.527 16.78-51.914 16.78-48.984 0-88.694-39.709-88.694-88.694z" fill="#e27f86"/><path d="m138.259 138.386c-15.251 0-29.42 4.631-41.179 12.562-7.931 11.759-22.562 35.928-22.562 51.179 0 40.726 33.015 73.74 73.74 73.74 15.251 0 39.419-14.631 51.179-22.562 7.931-11.759 12.562-25.928 12.562-41.179 0-40.725-33.015-73.74-73.74-73.74z" fill="#ffc250"/><path d="m84.518 192.126c0-15.251 4.631-29.419 12.562-41.179-19.643 13.247-32.562 35.704-32.562 61.179 0 40.726 33.015 73.74 73.74 73.74 25.475 0 47.931-12.919 61.179-32.562-11.759 7.931-25.928 12.562-41.179 12.562-40.725.001-73.74-33.014-73.74-73.74z" fill="#e69642"/><path d="m267.62 267.748c-15.251 0-29.419 4.631-41.179 12.562-7.931 11.759-22.562 35.928-22.562 51.179 0 40.726 33.015 73.74 73.74 73.74 15.251 0 39.419-14.631 51.179-22.562 7.931-11.759 12.562-25.928 12.562-41.179.001-40.726-33.014-73.74-73.74-73.74z" fill="#c1e4fa"/><path d="m213.88 321.488c0-15.251 4.631-29.419 12.562-41.179-19.643 13.247-32.562 35.704-32.562 61.179 0 40.726 33.015 73.74 73.74 73.74 25.475 0 47.931-12.919 61.179-32.562-11.76 7.931-25.928 12.562-41.179 12.562-40.725.001-73.74-33.014-73.74-73.74z" fill="#91b5f9"/><g fill="#f7f9fa"><path d="m171.175 235.283-24.412-64.688c-.025-.069-.053-.137-.08-.205-1.392-3.384-4.653-5.569-8.312-5.569-.002 0-.005 0-.008 0-3.661.003-6.923 2.194-8.311 5.583-.022.057-.046.114-.067.172l-24.636 64.685c-1.475 3.871.469 8.204 4.34 9.678 3.866 1.475 8.203-.468 9.678-4.339l4.296-11.279h29.23l4.249 11.258c1.133 3.003 3.987 4.854 7.018 4.854.88 0 1.775-.156 2.647-.485 3.875-1.463 5.831-5.79 4.368-9.665zm-41.799-20.962 8.969-23.549 8.887 23.549z"/><path d="m252.576 380.822c-1.979 0-3.879-.782-5.283-2.177-1.412-1.401-2.21-3.306-2.217-5.296 0 0-.083-23.081-.083-31.931 0-7.259-.047-31.75-.047-31.75-.004-1.991.785-3.903 2.191-5.313 1.407-1.41 3.317-2.202 5.309-2.202h18.032c19.864 0 33.211 15.807 33.211 39.334 0 22.38-13.689 38.863-32.552 39.193-5.135.089-17.988.139-18.533.141-.009.001-.018.001-.028.001zm7.384-63.668c.014 7.832.033 19.601.033 24.264 0 5.582.033 16.836.058 24.366 3.896-.024 8.347-.058 10.825-.102 8.866-.155 17.813-7.696 17.813-24.195 0-11.764-4.784-24.334-18.211-24.334h-10.518z"/><path d="m302.337 195.691c-1.983 0-3.886-.785-5.291-2.185-1.414-1.407-2.209-3.32-2.209-5.315v-65.609c0-4.142 3.357-7.5 7.5-7.5h19.059c12.46 0 22.597 10.137 22.597 22.597 0 4.749-1.473 9.16-3.984 12.801 5.999 4.603 9.875 11.844 9.875 19.973 0 13.874-11.286 25.16-25.159 25.16-4.83 0-22.354.078-22.354.078-.011 0-.023 0-.034 0zm7.5-35.365v20.333c5.391-.021 12.158-.046 14.887-.046 5.602 0 10.159-4.558 10.159-10.16s-4.558-10.16-10.159-10.16c-2.09 0-9.597.019-14.887.033zm0-30.244v15.233c4.044-.019 9.212-.04 11.559-.04 4.188 0 7.597-3.408 7.597-7.597s-3.408-7.597-7.597-7.597h-11.559z"/><path d="m372.262 197.691c-4.143 0-7.5-3.358-7.5-7.5v-21.484c0-4.142 3.357-7.5 7.5-7.5s7.5 3.358 7.5 7.5v21.484c0 4.142-3.357 7.5-7.5 7.5z"/></g></g></svg>